<svg width="305" height="16" viewBox="0 0 305 16" fill="none" xmlns="http://www.w3.org/2000/svg">
<path d="M0 8C0 12.4183 3.58172 16 8 16C12.4183 16 16 12.4183 16 8C16 3.58172 12.4183 0 8 0C3.58172 0 0 3.58172 0 8ZM289 8C289 12.4183 292.582 16 297 16C301.418 16 305 12.4183 305 8C305 3.58172 301.418 0 297 0C292.582 0 289 3.58172 289 8ZM8 9.5H11.0104V6.5H8V9.5ZM17.0312 9.5H23.0521V6.5H17.0312V9.5ZM29.0729 9.5H35.0938V6.5H29.0729V9.5ZM41.1146 9.5H47.1354V6.5H41.1146V9.5ZM53.1562 9.5H59.1771V6.5H53.1562V9.5ZM65.1979 9.5H71.2187V6.5H65.1979V9.5ZM77.2396 9.5H83.2604V6.5H77.2396V9.5ZM89.2812 9.5H95.3021V6.5H89.2812V9.5ZM101.323 9.5H107.344V6.5H101.323V9.5ZM113.365 9.5H119.385V6.5H113.365V9.5ZM125.406 9.5H131.427V6.5H125.406V9.5ZM137.448 9.5H143.469V6.5H137.448V9.5ZM149.49 9.5H155.51V6.5H149.49V9.5ZM161.531 9.5H167.552V6.5H161.531V9.5ZM173.573 9.5H179.594V6.5H173.573V9.5ZM185.615 9.5H191.635V6.5H185.615V9.5ZM197.656 9.5H203.677V6.5H197.656V9.5ZM209.698 9.5H215.719V6.5H209.698V9.5ZM221.74 9.5H227.76V6.5H221.74V9.5ZM233.781 9.5H239.802V6.5H233.781V9.5ZM245.823 9.5H251.844V6.5H245.823V9.5ZM257.865 9.5H263.885V6.5H257.865V9.5ZM269.906 9.5H275.927V6.5H269.906V9.5ZM281.948 9.5H287.969V6.5H281.948V9.5ZM293.99 9.5H297V6.5H293.99V9.5Z" fill="#FF961A"/>
</svg>
