<svg width="376" height="28" viewBox="0 0 376 28" fill="none" xmlns="http://www.w3.org/2000/svg">
<path d="M0.666667 14C0.666667 21.3638 6.6362 27.3333 14 27.3333C21.3638 27.3333 27.3333 21.3638 27.3333 14C27.3333 6.6362 21.3638 0.666667 14 0.666667C6.6362 0.666667 0.666667 6.6362 0.666667 14ZM14 16.5H19.0278V11.5H14V16.5ZM29.0833 16.5H39.1389V11.5H29.0833V16.5ZM49.1944 16.5H59.25V11.5H49.1944V16.5ZM69.3056 16.5H79.3611V11.5H69.3056V16.5ZM89.4167 16.5H99.4722V11.5H89.4167V16.5ZM109.528 16.5H119.583V11.5H109.528V16.5ZM129.639 16.5H139.694V11.5H129.639V16.5ZM149.75 16.5H159.806V11.5H149.75V16.5ZM169.861 16.5H179.917V11.5H169.861V16.5ZM189.972 16.5H200.028V11.5H189.972V16.5ZM210.083 16.5H220.139V11.5H210.083V16.5ZM230.194 16.5H240.25V11.5H230.194V16.5ZM250.306 16.5H260.361V11.5H250.306V16.5ZM270.417 16.5H280.472V11.5H270.417V16.5ZM290.528 16.5H300.583V11.5H290.528V16.5ZM310.639 16.5H320.694V11.5H310.639V16.5ZM330.75 16.5H340.805V11.5H330.75V16.5ZM350.861 16.5H360.917V11.5H350.861V16.5ZM370.972 16.5H376V11.5H370.972V16.5Z" fill="black"/>
</svg>
