<svg width="54" height="54" viewBox="0 0 54 54" fill="none" xmlns="http://www.w3.org/2000/svg">
<path id="Vector" d="M37.3847 22.8462C37.3847 18.8438 35.9622 15.4201 33.1172 12.5751C30.2723 9.73017 26.8486 8.30769 22.8462 8.30769C18.8438 8.30769 15.4201 9.73017 12.5752 12.5751C9.73023 15.4201 8.30775 18.8438 8.30775 22.8462C8.30775 26.8486 9.73023 30.2722 12.5752 33.1172C15.4201 35.9621 18.8438 37.3846 22.8462 37.3846C26.8486 37.3846 30.2723 35.9621 33.1172 33.1172C35.9622 30.2722 37.3847 26.8486 37.3847 22.8462ZM54.0001 49.8462C54.0001 50.9712 53.589 51.9447 52.7669 52.7668C51.9448 53.5889 50.9712 54 49.8462 54C48.6779 54 47.7044 53.5889 46.9255 52.7668L35.7945 41.6683C31.9219 44.351 27.6058 45.6923 22.8462 45.6923C19.7525 45.6923 16.7939 45.0919 13.9706 43.8912C11.1473 42.6905 8.7134 41.0679 6.66893 39.0234C4.62446 36.979 3.00186 34.5451 1.80114 31.7218C0.600422 28.8984 6.10352e-05 25.9399 6.10352e-05 22.8462C6.10352e-05 19.7524 0.600422 16.7939 1.80114 13.9706C3.00186 11.1472 4.62446 8.71334 6.66893 6.66887C8.7134 4.6244 11.1473 3.0018 13.9706 1.80108C16.7939 0.600361 19.7525 0 22.8462 0C25.94 0 28.8985 0.600361 31.7218 1.80108C34.5451 3.0018 36.979 4.6244 39.0235 6.66887C41.068 8.71334 42.6906 11.1472 43.8913 13.9706C45.092 16.7939 45.6924 19.7524 45.6924 22.8462C45.6924 27.6058 44.351 31.9219 41.6683 35.7945L52.7993 46.9255C53.5998 47.726 54.0001 48.6995 54.0001 49.8462Z" fill="#FF961A"/>
</svg>
