<svg width="35" height="35" viewBox="0 0 35 35" fill="none" xmlns="http://www.w3.org/2000/svg">
<g id="bxs:star">
<path id="Vector" d="M32.006 13.386C31.9144 13.1161 31.7457 12.8788 31.5207 12.7036C31.2958 12.5284 31.0244 12.423 30.7402 12.4002L22.4262 11.7396L18.8285 3.77562C18.714 3.51912 18.5276 3.30126 18.2919 3.14833C18.0563 2.99541 17.7814 2.91395 17.5005 2.9138C17.2195 2.91364 16.9446 2.9948 16.7087 3.14746C16.4729 3.30013 16.2863 3.51779 16.1715 3.77416L12.5737 11.7396L4.25979 12.4002C3.98045 12.4223 3.71341 12.5245 3.4906 12.6944C3.26779 12.8643 3.09865 13.0948 3.00343 13.3584C2.9082 13.6219 2.89091 13.9073 2.95363 14.1804C3.01634 14.4535 3.15642 14.7028 3.35708 14.8983L9.50104 20.8877L7.32812 30.2969C7.26214 30.5817 7.28329 30.8798 7.38882 31.1524C7.49435 31.425 7.67938 31.6597 7.91992 31.8258C8.16045 31.992 8.44538 32.0821 8.73772 32.0843C9.03007 32.0865 9.31633 32.0008 9.55937 31.8383L17.5 26.5446L25.4406 31.8383C25.689 32.0033 25.982 32.0882 26.2801 32.0816C26.5782 32.0751 26.8671 31.9774 27.1081 31.8018C27.349 31.6261 27.5304 31.3809 27.6278 31.0991C27.7252 30.8172 27.734 30.5124 27.6529 30.2254L24.9856 20.8921L31.6006 14.9392C32.0338 14.5483 32.1927 13.9387 32.006 13.386Z" fill="#FD0000"/>
</g>
</svg>
